<svg width="1440" height="502" viewBox="0 0 1440 502" fill="none" xmlns="http://www.w3.org/2000/svg">
<g clip-path="url(#clip0_1_1446)">
<rect width="1440" height="501" transform="translate(0 0.0908203)" fill="#0044B5"/>
<path opacity="0.3" d="M1229.28 377.862C1227.66 380.684 1224.04 381.615 1221.27 380.011L1152.91 340.579C1156.37 297.767 1135.57 254.826 1095.94 231.952C1056.29 209.078 1008.62 212.516 973.27 236.894L904.972 197.491C902.148 195.858 901.16 192.263 902.779 189.441C903.152 188.811 903.653 188.238 904.183 187.808C904.284 187.737 904.356 187.679 904.456 187.622L1163.52 1.32065C1163.53 1.27768 1163.56 1.23462 1163.56 1.23462C1165.44 -0.126099 1168 -0.312256 1170.08 0.890869L1259.07 52.2538C1261.01 53.3566 1262.07 55.4623 1262 57.5821L1261.93 58.4986L1230.04 375.17L1229.97 376.086C1229.84 376.702 1229.61 377.304 1229.28 377.862Z" fill="#2C83FD"/>
<path opacity="0.3" d="M1352.19 575.938C1351.11 577.819 1348.69 578.44 1346.85 577.371L1301.28 551.083C1303.58 522.541 1289.72 493.914 1263.29 478.665C1236.86 463.415 1205.08 465.707 1181.51 481.959L1135.98 455.69C1134.1 454.602 1133.44 452.205 1134.52 450.324C1134.77 449.904 1135.1 449.522 1135.46 449.235C1135.52 449.188 1135.57 449.149 1135.64 449.111L1308.35 324.91C1308.36 324.882 1308.37 324.853 1308.37 324.853C1309.63 323.946 1311.34 323.822 1312.72 324.624L1372.05 358.866C1373.34 359.601 1374.05 361.005 1374 362.418L1373.95 363.029L1352.69 574.143L1352.65 574.754C1352.56 575.165 1352.41 575.566 1352.19 575.938Z" fill="#2C83FD"/>
<path opacity="0.3" d="M1054.19 64.9382C1053.11 66.8193 1050.69 67.44 1048.85 66.3705L1003.28 40.0827C1005.58 11.5414 991.716 -17.0858 965.291 -32.3352C938.857 -47.5846 907.082 -45.2929 883.513 -29.0409L837.981 -55.3096C836.099 -56.3982 835.44 -58.7949 836.519 -60.676C836.768 -61.0961 837.102 -61.4781 837.456 -61.7646C837.522 -61.8123 837.57 -61.8505 837.637 -61.8887L1010.35 -186.09C1010.36 -186.118 1010.37 -186.147 1010.37 -186.147C1011.63 -187.054 1013.34 -187.178 1014.72 -186.376L1074.05 -152.134C1075.34 -151.399 1076.05 -149.995 1076 -148.582L1075.95 -147.971L1054.69 63.143L1054.65 63.7542C1054.56 64.1648 1054.41 64.5658 1054.19 64.9382Z" fill="#2C83FD"/>
<path opacity="0.3" d="M1500.64 275.549C1499.46 277.606 1496.82 278.285 1494.8 277.116L1444.96 248.363C1447.48 217.146 1432.31 185.835 1403.41 169.156C1374.5 152.477 1339.75 154.984 1313.97 172.759L1264.17 144.028C1262.11 142.837 1261.39 140.216 1262.57 138.158C1262.84 137.699 1263.21 137.281 1263.59 136.968C1263.67 136.916 1263.72 136.874 1263.79 136.832L1452.69 0.987244C1452.7 0.955902 1452.72 0.9245 1452.72 0.9245C1454.09 -0.067688 1455.96 -0.20343 1457.48 0.673859L1522.37 38.126C1523.78 38.9301 1524.55 40.4655 1524.5 42.0112L1524.45 42.6795L1501.2 273.585L1501.14 274.254C1501.05 274.703 1500.88 275.142 1500.64 275.549Z" fill="#2C83FD"/>
<path opacity="0.3" d="M1007.92 540.166C1006.85 542.019 1004.47 542.63 1002.66 541.577L957.77 515.683C960.038 487.569 946.383 459.37 920.354 444.349C894.315 429.329 863.016 431.586 839.801 447.594L794.951 421.719C793.097 420.647 792.448 418.286 793.511 416.433C793.756 416.019 794.085 415.643 794.433 415.361C794.499 415.314 794.546 415.276 794.612 415.239L964.734 292.898C964.743 292.87 964.762 292.842 964.762 292.842C965.995 291.948 967.679 291.826 969.044 292.616L1027.48 326.345C1028.75 327.069 1029.45 328.452 1029.4 329.844L1029.36 330.446L1008.42 538.397L1008.37 538.999C1008.29 539.404 1008.13 539.799 1007.92 540.166Z" fill="#2C83FD"/>
</g>
<defs>
<clipPath id="clip0_1_1446">
<rect width="1440" height="501" fill="white" transform="translate(0 0.0908203)"/>
</clipPath>
</defs>
</svg>
